name C:\Users\r0593348\3dpredictsim\Results\Batchsim_tmt_linear\Pog_s1_tmt_aCst_d00_k500_ig24_act.mot
datacolumns 128
datarows 4
range 0.69553091 0.73726277
endheader
time	pelvis_tilt	pelvis_list	pelvis_rotation	pelvis_tx	pelvis_ty	pelvis_tz	hip_flexion_l	hip_adduction_l	hip_rotation_l	hip_flexion_r	hip_adduction_r	hip_rotation_r	knee_angle_l	knee_angle_r	ankle_angle_l	ankle_angle_r	subtalar_angle_l	subtalar_angle_r	tmt_angle_l	tmt_angle_r	mtp_angle_l	mtp_angle_r	lumbar_extension	lumbar_bending	lumbar_rotation	arm_flex_l	arm_add_l	arm_rot_l	arm_flex_r	arm_add_r	arm_rot_r	elbow_flex_l	elbow_flex_r	pro_sup_l	pro_sup_r	glut_med1_l/activation	glut_med2_l/activation	glut_med3_l/activation	glut_min1_l/activation	glut_min2_l/activation	glut_min3_l/activation	semimem_l/activation	semiten_l/activation	bifemlh_l/activation	bifemsh_l/activation	sar_l/activation	add_long_l/activation	add_brev_l/activation	add_mag1_l/activation	add_mag2_l/activation	add_mag3_l/activation	tfl_l/activation	pect_l/activation	grac_l/activation	glut_max1_l/activation	glut_max2_l/activation	glut_max3_l/activation	iliacus_l/activation	psoas_l/activation	quad_fem_l/activation	gem_l/activation	peri_l/activation	rect_fem_l/activation	vas_med_l/activation	vas_int_l/activation	vas_lat_l/activation	med_gas_l/activation	lat_gas_l/activation	soleus_l/activation	tib_post_l/activation	flex_dig_l/activation	flex_hal_l/activation	tib_ant_l/activation	per_brev_l/activation	per_long_l/activation	per_tert_l/activation	ext_dig_l/activation	ext_hal_l/activation	ercspn_l/activation	intobl_l/activation	extobl_l/activation	glut_med1_r/activation	glut_med2_r/activation	glut_med3_r/activation	glut_min1_r/activation	glut_min2_r/activation	glut_min3_r/activation	semimem_r/activation	semiten_r/activation	bifemlh_r/activation	bifemsh_r/activation	sar_r/activation	add_long_r/activation	add_brev_r/activation	add_mag1_r/activation	add_mag2_r/activation	add_mag3_r/activation	tfl_r/activation	pect_r/activation	grac_r/activation	glut_max1_r/activation	glut_max2_r/activation	glut_max3_r/activation	iliacus_r/activation	psoas_r/activation	quad_fem_r/activation	gem_r/activation	peri_r/activation	rect_fem_r/activation	vas_med_r/activation	vas_int_r/activation	vas_lat_r/activation	med_gas_r/activation	lat_gas_r/activation	soleus_r/activation	tib_post_r/activation	flex_dig_r/activation	flex_hal_r/activation	tib_ant_r/activation	per_brev_r/activation	per_long_r/activation	per_tert_r/activation	ext_dig_r/activation	ext_hal_r/activation	ercspn_r/activation	intobl_r/activation	extobl_r/activation	
          0.69553091	         -2.92662247	          1.25234629	        -10.49002557	          0.86941364	          0.84741569	          0.00304990	         33.59750593	          0.02362605	         -0.10716159	        -18.64332137	         -3.40469799	          7.19158683	        -13.32687471	        -17.61651727	          9.80497339	        -20.93382606	         -4.69071146	          9.68354535	          0.02895411	          1.73340759	         -0.05002397	         38.18634604	         -0.12042669	          1.34230462	          4.79708238	        -12.13893692	        -13.66364729	         12.66077073	          3.16304970	        -13.72718857	         18.85536943	         16.50162336	         46.81864971	         86.51662706	         86.51662706	          0.05000013	          0.05000028	          0.09688101	          0.05000019	          0.05000021	          0.05000031	          0.15798790	          0.11560593	          0.13015165	          0.11010661	          0.05000108	          0.07587207	          0.12967926	          0.24466168	          0.22574182	          0.17712716	          0.05000052	          0.06423908	          0.14225422	          0.13523935	          0.17825143	          0.17226036	          0.05068947	          0.05000262	          0.38797075	          0.06161054	          0.13012141	          0.05000159	          0.09254373	          0.13351893	          0.12838261	          0.06159261	          0.06160148	          0.05436816	          0.06159222	          0.07587212	          0.07587174	          0.56420050	          0.39012371	          0.28909036	          0.21475662	          0.61859741	          0.39614679	          0.05000001	          0.12261511	          0.09019367	          0.09420702	          0.05000030	          0.05267222	          0.14105124	          0.08443313	          0.06090084	          0.05000520	          0.06159212	          0.06159276	          0.05273147	          0.07587680	          0.24228813	          0.17684792	          0.17813134	          0.07585961	          0.06160872	          0.14182629	          0.07605909	          0.06465811	          0.05001013	          0.05001346	          0.06159380	          0.43420691	          0.48154059	          0.07587179	          0.06161353	          0.06159311	          0.24870843	          0.11240222	          0.12696120	          0.14181971	          0.11143976	          0.17833696	          0.09503558	          0.14357843	          0.17691763	          0.17672668	          0.23838637	          0.48708430	          0.33853109	          0.62317494	          0.50199018	          0.11744662	          0.06164772	          0.06159217	          0.06159259	
          0.70944153	         -2.93017628	          1.20228338	        -10.68247929	          0.89315261	          0.84474038	          0.00266543	         32.72911401	          0.32892233	          0.12921892	        -18.71574599	         -3.71262119	          6.96460492	        -14.50989337	        -19.14590642	          9.11607005	        -24.25817102	         -5.10269850	          9.88457967	         -0.01143217	          1.28349851	         -0.18548835	         37.94364063	          0.18828723	          1.13362990	          4.92103455	        -13.97083365	        -13.69325523	         12.82602012	          2.40584162	        -13.85815147	         19.00963504	         16.43521165	         48.23448971	         86.51662706	         86.51662706	          0.24677914	          0.37227475	          0.52128723	          0.22562683	          0.22438545	          0.40651402	          0.12825322	          0.09384809	          0.10565603	          0.08938363	          0.05000038	          0.06159241	          0.10527262	          0.19861468	          0.18886782	          0.18070443	          0.05000035	          0.05215217	          0.11548137	          0.29299772	          0.25811379	          0.20959409	          0.05000014	          0.05000012	          0.31495184	          0.05001595	          0.32103129	          0.05000008	          0.09541377	          0.12570236	          0.10819612	          0.05000037	          0.05000759	          0.05000007	          0.05000010	          0.06159243	          0.06159214	          0.68392603	          0.50780505	          0.23468127	          0.59258379	          0.72422656	          0.60741019	          0.06133211	          0.10276690	          0.07321845	          0.32457532	          0.06159208	          0.05000542	          0.32304751	          0.06938512	          0.06158204	          0.06001427	          0.05000036	          0.05000078	          0.05000034	          0.06159650	          0.19668744	          0.14356372	          0.14460555	          0.06158242	          0.05001369	          0.11513353	          0.06174440	          0.05248916	          0.05001060	          0.05000545	          0.05000283	          0.35248546	          0.45355232	          0.06159214	          0.05001800	          0.05000087	          0.20189937	          0.09764717	          0.11350727	          0.11512906	          0.09046591	          0.14477244	          0.15140699	          0.11655573	          0.14362025	          0.14346521	          0.19373258	          0.39541177	          0.27484894	          0.80448777	          0.72379795	          0.44948334	          0.09449455	          0.05000001	          0.05000035	
          0.72335215	         -2.92936371	          1.17333126	        -10.81653660	          0.91638662	          0.84205240	          0.00222577	         32.02432103	          0.65649509	          0.35962156	        -18.45448073	         -3.99111310	          6.77210949	        -15.87048071	        -21.24285335	          8.13674371	        -26.83830422	         -5.51347050	         10.00285651	         -0.04675661	          0.95034854	         -0.19022945	         35.31231964	          0.44021149	          0.88479543	          5.01807677	        -15.59789475	        -13.71256811	         13.20082463	          1.69944817	        -13.95397592	         19.05433328	         16.17870973	         49.50464348	         86.51662706	         86.51662706	          0.34610801	          0.50554047	          0.59414441	          0.18316271	          0.28405149	          0.33000548	          0.10411487	          0.08879627	          0.08577070	          0.07256091	          0.05000036	          0.05000028	          0.08545945	          0.17312496	          0.23444074	          0.20173832	          0.05000020	          0.05000077	          0.09374736	          0.36979579	          0.31188869	          0.25190590	          0.05000005	          0.05000005	          0.27148761	          0.06228478	          0.26061074	          0.05000003	          0.18977776	          0.24043139	          0.20945227	          0.05000000	          0.05000001	          0.05000000	          0.05000000	          0.05000035	          0.05000013	          0.77994007	          0.47112496	          0.22972895	          0.78861589	          0.81604791	          0.64176265	          0.08882804	          0.08342530	          0.05943811	          0.27382230	          0.05000014	          0.05000004	          0.26224831	          0.05632650	          0.05000025	          0.09609202	          0.05000009	          0.05000018	          0.05000006	          0.05000377	          0.15966926	          0.12293952	          0.11738978	          0.05000191	          0.07018034	          0.09346449	          0.05012433	          0.05000018	          0.05000142	          0.05000101	          0.05000071	          0.28614468	          0.40105836	          0.05000009	          0.05000036	          0.05000012	          0.16390017	          0.09346233	          0.09346232	          0.09346232	          0.07343951	          0.11752508	          0.14203608	          0.09461895	          0.11658974	          0.11646385	          0.19569118	          0.37253558	          0.25473741	          0.74627942	          0.85669515	          0.36488671	          0.14555510	          0.05000001	          0.05000003	
          0.73726277	         -2.92497001	          1.16786022	        -10.89668589	          0.93881800	          0.83989393	          0.00170612	         31.61539499	          1.02968766	          0.56680496	        -17.82821030	         -4.24117661	          6.58474842	        -17.57077786	        -23.84062027	          6.88551556	        -28.72848509	         -5.94469061	         10.04254480	         -0.07276319	          0.55738358	         -0.27796455	         30.30363600	          0.62736295	          0.60218026	          5.09297213	        -16.94621848	        -13.69875613	         13.73902447	          1.11892877	        -13.98666175	         19.03481337	         15.70274218	         50.48663761	         86.51662706	         86.51662706	          0.44021222	          0.61026215	          0.69866055	          0.16347198	          0.27369398	          0.38091213	          0.08451956	          0.07208420	          0.06962797	          0.05890437	          0.05000031	          0.05000037	          0.06937552	          0.14054616	          0.21133324	          0.20344582	          0.05000073	          0.05000238	          0.07610365	          0.40766356	          0.34995564	          0.26772472	          0.05000009	          0.05000010	          0.22039162	          0.05056739	          0.22383717	          0.05000017	          0.40317171	          0.41736606	          0.36755221	          0.05000004	          0.05000014	          0.05000001	          0.15387288	          0.11618353	          0.11511254	          0.88582398	          0.38245518	          0.18649198	          0.64019160	          0.66246097	          0.63968087	          0.11244133	          0.06772394	          0.05000002	          0.22228675	          0.05000007	          0.05000003	          0.21289115	          0.05000037	          0.05000017	          0.13388741	          0.05000007	          0.05000013	          0.05000002	          0.05000024	          0.13108037	          0.22547695	          0.24557690	          0.13120517	          0.09348336	          0.07587372	          0.05000223	          0.05000014	          0.05000122	          0.05000080	          0.05000060	          0.23228980	          0.32558464	          0.05000006	          0.05000030	          0.05000007	          0.13305274	          0.07587192	          0.07587192	          0.07587191	          0.07924048	          0.09540590	          0.13336456	          0.07681085	          0.09464662	          0.09454439	          0.32005823	          0.32257383	          0.22292589	          0.67691451	          0.69545777	          0.33512048	          0.17269973	          0.05000000	          0.05000003	
